<svg xmlns="http://www.w3.org/2000/svg" viewBox="0 0 868.82 807.25"><defs><style>.cls-1{fill:#00a79d;}.cls-1,.cls-4,.cls-5,.cls-6{stroke:#231f20;stroke-miterlimit:10;}.cls-2{fill:#9e1f63;}.cls-3,.cls-6{fill:#231f20;}.cls-4{fill:#ed1c24;}.cls-5{fill:#21409a;stroke-width:4.25px;}</style></defs><title>doodle</title><g id="Layer_1" data-name="Layer 1"><circle class="cls-1" cx="398.13" cy="398.13" r="360"/><path class="cls-1" d="M962.52,887.86h0Z" transform="translate(-93.7 -81.12)"/><path class="cls-2" d="M212.16,454.27c1.72-.84,3.45-1.65,5.21-2.42,0,0,1.75-.76.74-.33s.73-.3.75-.3c1-.4,2-.79,2.95-1.16q5.55-2.1,11.26-3.71t11.29-2.65c1.8-.35,3.62-.66,5.43-.93l1.44-.21c-1.61.23-.28,0,.13,0,1.06-.13,2.11-.25,3.17-.36a134.25,134.25,0,0,1,23.38-.34c1.81.13,3.62.31,5.43.51l1.42.18c1.17.13-1.74-.27.11,0,1.13.18,2.26.35,3.38.54q5.61,1,11.11,2.45a112.35,112.35,0,0,1,10.75,3.5c.87.33,1.74.68,2.61,1,1.23.5.09,0-.14-.06l1.55.68c1.7.77,3.39,1.58,5.05,2.44a97.06,97.06,0,0,1,9.88,5.84c1.48,1,2.92,2,4.34,3.09s-.76-.63.12.09l1.1.88c.87.71,1.74,1.44,2.58,2.18a90.83,90.83,0,0,1,8.06,8c.73.81,1.43,1.63,2.13,2.47.3.36.6.72.89,1.09-.12-.15,1.32,1.66.76.94.93,1.19,2.76,3.74,4,5.54,5.36,7.88,9.9,16.28,14.45,24.65,4.4,8.09,8.85,16.17,14,23.81a198.37,198.37,0,0,0,54.7,54.39c28.71,19.32,62.65,31.33,97.23,33.47,19.56,1.21,40.14-1.33,57.44-11.09,15.15-8.56,27.76-23.27,31.88-40.39a53.36,53.36,0,0,0,1.48-13.2c-.05-3.71-3.21-7.26-7.08-7.09a7.2,7.2,0,0,0-7.09,7.09,57.76,57.76,0,0,1-.29,6c.13-1.48.07-.44,0-.11-.1.59-.2,1.18-.31,1.77-.2,1-.42,1.95-.68,2.91-.52,1.93-1.2,3.79-1.9,5.67.48-1.3.13-.31,0,0-.25.55-.5,1.09-.76,1.63-.44.91-.91,1.8-1.4,2.67a55.26,55.26,0,0,1-3.24,5.12l-.71,1c-1.17,1.63.9-1-.38.49-.66.78-1.3,1.57-2,2.33a61.12,61.12,0,0,1-4.3,4.37c-.75.69-1.52,1.37-2.3,2l-.95.78c-1.27,1,.71-.49-.51.39a70.08,70.08,0,0,1-10.71,6.44c-.65.31-1.3.6-1.94.89-.15.07-1.25.52-.27.12-1.09.45-2.2.87-3.31,1.27-2.22.79-4.48,1.48-6.76,2.08s-4.61,1.11-6.93,1.53c-1.17.21-2.34.4-3.52.57l-.23,0-2.13.24a122.3,122.3,0,0,1-14.32.59c-4.78-.07-9.56-.39-14.31-.91-1.06-.11-2.12-.24-3.18-.37-2-.24.94.14-.28,0l-1.54-.22q-3.07-.45-6.13-1a188.46,188.46,0,0,1-24.1-6.08q-5.91-1.9-11.7-4.2l-2.88-1.17c-1.85-.76.81.36-.31-.13l-1.43-.62c-1.9-.83-3.78-1.69-5.66-2.58A198.85,198.85,0,0,1,447,576.25q-5.23-3.36-10.25-7c-.84-.61-1.67-1.23-2.5-1.86.05,0-1.56-1.21-.76-.58s-.8-.63-.75-.6q-2.44-1.92-4.83-3.92a193,193,0,0,1-17.95-17.19q-4.21-4.57-8.1-9.43c-.65-.81-1.3-1.62-1.93-2.44.83,1.08,0,0-.22-.29l-.93-1.24c-1.24-1.66-2.45-3.35-3.63-5a253.87,253.87,0,0,1-13.88-23.06c-8.83-16.19-17.59-32.8-31.09-45.69a108.48,108.48,0,0,0-40.51-24c-29.78-10-63.79-8.34-92.93,3.07-4,1.55-7.88,3.25-11.7,5.12-3.33,1.64-4.51,6.64-2.54,9.7a7.27,7.27,0,0,0,9.7,2.54Z" transform="translate(-93.7 -81.12)"/><path class="cls-2" d="M400.77,252.06c11.09,1.2,20.79,2.56,32.08,4.54q16.51,2.89,32.8,6.85t32.28,9c4.77,1.49,9.54,3,14.2,4.8.62.24,1.24.48,1.85.74-.27-.12-1.13-.51.14.06,1,.45,2,.91,3,1.41a49.08,49.08,0,0,1,6.18,3.64c.11.07,1.8,1.36.65.44.33.27.67.55,1,.83.82.7,1.61,1.45,2.36,2.23.46.47.88,1,1.32,1.45.13.14.84,1.05.15.14a31.85,31.85,0,0,1,2.19,3.33c.56,1,1.07,1.94,1.55,2.94,0,.1.91,2.11.36.76.16.41.33.83.48,1.24a66.15,66.15,0,0,1,2.17,7.11c2.59,10.36,3.91,21.09,5.63,31.61q5.6,34.31,10.54,68.71,1.25,8.59,2.44,17.21.57,4.1,1.13,8.2c.19,1.36.38,2.73.56,4.1.09.68.19,1.36.28,2.05,0,.41.11.82.16,1.23.13.9.15,1.09.08.57.79,5.89,1.74,11.53,5.7,16.24,3.46,4.12,8.64,6.2,13.65,7.76,20.83,6.48,42.81,8,63.67,14.37q3.28,1,6.5,2.15c1,.36,1.95.72,2.92,1.1l1.16.46c.25.1,2.65,1.11,1.18.48q6,2.6,11.74,5.75T674,492.41q2.56,1.77,5,3.65c1.09.82.27.2,0,0l1.47,1.16c1,.78,1.93,1.58,2.88,2.38a137.32,137.32,0,0,1,18.22,18.74l.78,1c1.28,1.62-.82-1.12.41.54.62.83,1.25,1.66,1.86,2.5,1.33,1.86,2.62,3.74,3.86,5.66q3.47,5.37,6.4,11,1.5,2.91,2.85,5.89l.51,1.13c.08.17.89,2.08.27.6.45,1,.87,2.12,1.28,3.18a126.18,126.18,0,0,1,4.45,13.81,130.08,130.08,0,0,1,2.88,14.24c.05.32.24,1.81.08.52l.21,1.72c.13,1.14.24,2.29.35,3.44q.33,3.79.45,7.61a135.65,135.65,0,0,1-.31,14.54c-.17,2.31-.44,4.6-.69,6.9-.14,1.31.26-1.68-.07.52-.08.57-.17,1.14-.25,1.71-.2,1.25-.41,2.51-.65,3.75a134.7,134.7,0,0,1-3.41,14.14q-1,3.48-2.27,6.9c-.39,1.09-.8,2.17-1.22,3.24l-.63,1.61c-.08.19-.83,2-.36.87a131.23,131.23,0,0,1-6.49,13c-1.84,3.23-.87,7.9,2.54,9.7a7.21,7.21,0,0,0,9.7-2.54c20.1-35.31,24.13-79.67,10-117.86a142.08,142.08,0,0,0-73-78.92,153.89,153.89,0,0,0-29.24-9.87c-10.87-2.53-21.89-4.27-32.82-6.5-5.33-1.09-10.64-2.3-15.87-3.78-2.3-.64-4.57-1.34-6.82-2.14-1.93-.69,1.09.65-.7-.32-.38-.21-.77-.39-1.14-.61-.14-.08-1.85-1.27-.68-.33a12.3,12.3,0,0,1-1.38-1.32c1,1-.3-.56-.4-.7-1-1.51.09.6-.23-.4a34.44,34.44,0,0,1-1-3.52c-.21-1.1-.37-2.2-.53-3.31.21,1.49-.21-1.6-.2-1.48-.14-1.09-.29-2.19-.44-3.28q-1.17-8.61-2.37-17.22-4.94-35.24-10.55-70.38c-1.8-11.29-3.62-22.58-5.57-33.85-1.69-9.77-3.94-20-9.82-28.24-6.37-8.88-15.48-14.12-25.49-18a321.2,321.2,0,0,0-30.65-9.64,514.84,514.84,0,0,0-66.76-13.81c-5.89-.82-11.8-1.57-17.72-2.21-3.69-.4-7.24,3.55-7.08,7.09.18,4.18,3.12,6.66,7.08,7.09Z" transform="translate(-93.7 -81.12)"/><path class="cls-3" d="M439.23,446.22a2.52,2.52,0,0,0-3.07-1.75,2.55,2.55,0,0,0-1.75,3.08l0,.09c.71,3.58-31.08,194.88-33.66,192.29-17.3-17.33-6.67-224.28-22.72-242.78C372.76,391,595.6,529.81,590.45,523.59c-.86-1-230.71-145.83-231.6-144.94a2.55,2.55,0,0,0,0,3.53q27.42,33.15,57.5,64c5.65,5.79,11.31,11.55,17.13,17.15C617.13,640,762.19,455,762.86,453.48,765.18,448.21,440.39,451.88,439.23,446.22Z" transform="translate(-93.7 -81.12)"/><path class="cls-2" d="M439.09,446.24a2.37,2.37,0,0,0-2.49-1.73,2.29,2.29,0,0,0-2.1,2.2,3.24,3.24,0,0,0,.06.82,3.56,3.56,0,0,1,0,.92c-.05.58-.12,1.16-.18,1.74l-.43,3.46c-.62,4.61-1.29,9.22-2,13.82q-2.06,13.8-4.24,27.59-4.31,27.57-8.86,55.12c-3,18.36-6.12,36.71-9.41,55-1.67,9.16-3.29,18.32-5.29,27.44-.52,2.3-1,4.53-1.76,6.91-.06.16-.12.31-.2.49a2,2,0,0,1-.57.81c-2.53.52-1.64-.55-2-.33a4,4,0,0,1-.33-.39,11.61,11.61,0,0,1-1.08-1.61,21.83,21.83,0,0,1-1.5-3.37,80.13,80.13,0,0,1-3.23-13.79c-1.47-9.26-2.25-18.57-2.89-27.87s-1.07-18.6-1.43-27.9c-.74-18.61-1.15-37.21-1.55-55.82S386.83,472.59,386,454c-.44-9.28-1-18.56-1.86-27.81-.45-4.62-1-9.23-1.73-13.8-.38-2.29-.83-4.56-1.39-6.79a30.06,30.06,0,0,0-2.26-6.45,9.16,9.16,0,0,0-.88-1.4l-.28-.35c-.57-.59,1.23-1.4.84-.91a6.94,6.94,0,0,1,.86.37c1.07.52,2.09,1.08,3.11,1.64,2,1.13,4.06,2.29,6.07,3.46q6,3.51,12,7.1l23.91,14.39,47.69,29c31.78,19.35,63.49,38.83,95.44,57.9q6,3.57,12,7.08c2,1.16,4,2.32,6.06,3.45,1,.56,2,1.12,3,1.65.51.26,1,.52,1.54.72.1.05.31.1.24.09-.69.81-.05.45-.36.46l-.72-.48c-7.79-5.05-15.67-10-23.52-15l-47.19-29.81L424.1,419.19q-23.67-14.79-47.41-29.46l-11.91-7.26-3-1.79c-1-.56-2-1.21-3-1.65.65-.22,0,.09.12.12a2,2,0,0,0-.2.31,2.1,2.1,0,0,0-.2.69,2.48,2.48,0,0,0,.36,1.44c.26.41.7.87,1.05,1.32l1.11,1.34c3,3.55,6.09,7,9.2,10.49l4.81,5.06c1.63,1.66,3.17,3.4,4.89,5a13.83,13.83,0,0,0,7.36,2.78,40.05,40.05,0,0,0,11.1-.67c8.49-1.47,19.26-5.15,29.13-8.21,4.93-1.52,9.63-2.88,13.75-3.72a38.76,38.76,0,0,1,10.63-1,11.87,11.87,0,0,1,6.89,2.48,9.8,9.8,0,0,1,3.24,6,26,26,0,0,1-.36,9.77c-.37,1.9-.9,4-1.54,6.15-.29,1.05-.7,2.22-1,3.33l-1.18,3.49c-1.67,4.74-3.66,9.83-5.48,14.83l-1.36,3.76-.65,1.86.56.6,2.24,2.41c6,6.41,12.21,12.54,18.62,18.43s13.07,11.46,19.92,16.73a245.91,245.91,0,0,0,21.31,14.56,190,190,0,0,0,46.63,20.69,160.46,160.46,0,0,0,50.6,6.17,173.54,173.54,0,0,0,51.07-9.94,219.21,219.21,0,0,0,47.7-23.87,251,251,0,0,0,21.79-16,239.13,239.13,0,0,0,20-18.3c1.57-1.61,3.11-3.25,4.59-4.89l1.08-1.23.93-1.09c1.31-.6-2.42-.45,0,7.08,2.31,2.6,2.32,1.78,2.68,2.15.38.12.25.05.15,0-.28-.08-.75-.17-1.23-.25-2-.34-4.29-.57-6.53-.79s-4.55-.41-6.85-.58c-9.2-.71-18.48-1.22-27.75-1.7-18.56-.95-37.16-1.66-55.76-2.31-37.19-1.27-74.4-2.16-111.61-2.93l-55.82-1.17c-9.3-.21-18.6-.44-27.9-.77-4.65-.15-9.3-.33-14-.58-2.32-.13-4.64-.27-7-.47q-1.74-.14-3.48-.36c-.58-.07-1.16-.16-1.73-.27-.29-.06-.58-.12-.86-.2a3.16,3.16,0,0,1-.43-.16C439.36,446.54,439.19,446.5,439.09,446.24Zm.28-.05c0,.1.39.24.64.31s.55.14.83.2c.57.1,1.14.18,1.72.26,1.15.14,2.3.25,3.46.34q3.48.27,7,.43c4.64.23,9.29.39,13.94.52,9.3.23,18.6.36,27.9.46l27.91.12,27.91-.09c37.21-.22,74.43-.83,111.65-1.55l55.88-1c9.33-.14,18.65-.25,28.05-.24,2.35,0,4.7,0,7.09.09s4.75.13,7.37.35c.68.06,1.35.13,2.22.27a12.87,12.87,0,0,1,1.83.47c.62.48.92-.24,3.42,2.59,2.67,7.81-1.41,8.21-.22,7.84-.49.69-.82,1.14-1.21,1.66l-1.13,1.47c-1.51,1.93-3,3.79-4.59,5.63a281.41,281.41,0,0,1-41.58,39.61,249.33,249.33,0,0,1-49.67,30.18,205.69,205.69,0,0,1-57,16.58,196.4,196.4,0,0,1-60.33-1.34A213.27,213.27,0,0,1,523,543.93a248,248,0,0,1-28.14-11.09,314.25,314.25,0,0,1-51.46-30.61q-12.06-8.75-23.37-18.32l-2.82-2.39-.71-.6-1.9.64-3.87,1.34c-5.16,1.75-10.46,3.58-15.42,5l-3.65,1c-1.16.29-2.38.63-3.49.86-2.28.52-4.45.94-6.45,1.19a28.61,28.61,0,0,1-10.13-.2,11.65,11.65,0,0,1-6.47-4,13.74,13.74,0,0,1-2.77-7.6,37,37,0,0,1,1-11.11,118.73,118.73,0,0,1,4.23-13.92c3.56-9.9,8-20.43,10.3-28.82a43.27,43.27,0,0,0,1.79-11.05,14.25,14.25,0,0,0-1.88-7.68c-2.8-3.74-5.75-7.34-8.58-11.05l-8.8-10.84-1.12-1.34a17.37,17.37,0,0,1-1.12-1.41,3.19,3.19,0,0,1-.48-1.89,2.57,2.57,0,0,1,.28-1,2.8,2.8,0,0,1,.27-.43c.28-.14-.2-.24.74-.39.64.27,1.08.56,1.61.84l1.52.88,3,1.79,11.92,7.26q23.77,14.63,47.42,29.45l94.56,59.34,47.21,29.79c7.85,5,15.72,9.94,23.54,15l.73.49c-.14.13,1,.14-.07,1.07a1.67,1.67,0,0,1-.59-.14c-.58-.23-1.09-.5-1.62-.76-1-.54-2.06-1.1-3.08-1.66-2-1.14-4.06-2.3-6.07-3.46q-6-3.51-12-7.08c-32-19.07-63.71-38.49-95.51-57.82l-47.71-29L400,410q-6-3.57-12-7.08c-2-1.16-4-2.32-6.06-3.44-1-.56-2-1.12-3.06-1.61a6.37,6.37,0,0,0-.74-.32c-.58.36.6-.51.36-.73l.26.33a9.45,9.45,0,0,1,1,1.55,31.52,31.52,0,0,1,2.38,6.68c.58,2.27,1,4.57,1.43,6.87.8,4.6,1.38,9.23,1.88,13.86,1,9.28,1.6,18.57,2.12,27.86,1,18.6,1.62,37.2,2.22,55.8l.89,27.89q.43,13.95,1,27.88c.4,9.29.88,18.57,1.54,27.83.33,4.63.71,9.26,1.17,13.87s1,9.21,1.69,13.77a77.45,77.45,0,0,0,3.06,13.36,19.44,19.44,0,0,0,1.32,3,9.17,9.17,0,0,0,.85,1.28,2.15,2.15,0,0,0,.23.28c-.13.35.91-.22-1.33.08-.3.32-.11.13-.11.08s.08-.2.12-.32c.69-2,1.19-4.37,1.71-6.6,2-9.06,3.77-18.19,5.52-27.32,3.48-18.27,6.79-36.58,10.05-54.89s6.43-36.65,9.53-55q2.31-13.76,4.52-27.54c.73-4.59,1.46-9.19,2.12-13.79l.47-3.45c.07-.58.14-1.15.19-1.73a4.64,4.64,0,0,0,0-.83,2.76,2.76,0,0,1,0-.91,2.64,2.64,0,0,1,.74-1.63,2.59,2.59,0,0,1,1.61-.76A2.62,2.62,0,0,1,439.37,446.19Z" transform="translate(-93.7 -81.12)"/><path class="cls-3" d="M515.27,362.85a76.87,76.87,0,0,0-12.56-18.79c-5.44-6-12.41-12.56-21-12.41S465,337,458.47,342a79.16,79.16,0,0,0-11.8,11.12q-20.87-.51-41.73-.44-35.18.16-70.33,2.08-19.74,1.06-39.44,2.69a2.53,2.53,0,0,0-2.16,3.76q14.79,26.1,29.57,52.19l29.58,52.18L367,491.72c4.08,7.2,8.53,14.48,16,18.61,7.68,4.25,16.7,5.15,25.28,6.09,9.82,1.07,19.7,1.66,29.58,1.77,9.09.09,18.69.35,27.49-2.24,8.34-2.45,14.82-8,20.13-14.68A211.78,211.78,0,0,0,500,479.85a203.1,203.1,0,0,0,12.11-22.93c6.91-15.54,11.69-32.22,12.21-49.3A97.44,97.44,0,0,0,515.27,362.85Zm-4.12,83.32c-5.91,15.7-14.43,30.35-23.91,44.15-4.36,6.34-9,13-15.54,17.27-7.09,4.62-15.63,5.34-23.87,5.54-9.52.22-19.05,0-28.54-.71q-7.16-.51-14.27-1.37A85.76,85.76,0,0,1,393.11,509a30.19,30.19,0,0,1-10.59-4.85,32.65,32.65,0,0,1-7.47-8.54c-2.33-3.62-4.37-7.43-6.5-11.17l-7.14-12.61-28.59-50.45-28.47-50.23-5.07-8.94q32.89-2.61,65.89-3.71,35.16-1.16,70.36-.57l7.24.15c-.34.46-.68.92-1,1.39a73.12,73.12,0,0,0-5.82,9.88,2.56,2.56,0,0,0,.89,3.42,2.52,2.52,0,0,0,3.42-.9A73.85,73.85,0,0,1,449,358.2q13.05.35,26.09.92c3.22.14,3.21-4.86,0-5-7.27-.33-14.54-.57-21.82-.79a69.21,69.21,0,0,1,18.28-13.68c3.63-1.86,7.78-3.38,11.92-2.94,3.91.42,7.24,2.86,10.12,5.37a69,69,0,0,1,13.7,16.37c7.47,12.38,11.32,26.78,12,41.17C520,415.53,516.73,431.31,511.15,446.17Z" transform="translate(-93.7 -81.12)"/><path class="cls-2" d="M515.14,362.91a75.79,75.79,0,0,0-12.45-18.57,60.3,60.3,0,0,0-8.18-7.64,22.62,22.62,0,0,0-10-4.45,17.93,17.93,0,0,0-5.47.09,28.08,28.08,0,0,0-5.33,1.4,46.37,46.37,0,0,0-9.77,5.22,91.2,91.2,0,0,0-8.79,6.85,78.7,78.7,0,0,0-7.74,8l-.28.33H428.23L409.82,354q-18.4-.06-36.81.41c-12.27.33-24.54.62-36.8,1.19l-36.77,2.14-2.3.15L296,358c-.37,0-.8,0-1.08.09a2.28,2.28,0,0,0-1.47,1,1.83,1.83,0,0,0-.06,1.73l4.48,8,9,16.06,18.27,32L362,480.71l4.59,8c1.54,2.67,3,5.33,4.67,7.87a51.6,51.6,0,0,0,5.41,7.15,34,34,0,0,0,3.24,3,28.43,28.43,0,0,0,3.63,2.44c5.18,2.85,11.13,4.15,17.12,5s12.16,1.38,18.24,1.81,12.21.67,18.32.73a160.23,160.23,0,0,0,18.24-.38c6-.59,11.86-2,16.88-5a46.71,46.71,0,0,0,13-12.17c14.46-19.53,27.11-41,34-64.45a111.18,111.18,0,0,0,4.55-36.23A95.73,95.73,0,0,0,515.14,362.91Zm.26-.12a96.62,96.62,0,0,1,9.1,35.57A112.94,112.94,0,0,1,520.81,435a162.79,162.79,0,0,1-13.51,34.44c-2.85,5.48-6,10.81-9.23,16a179.18,179.18,0,0,1-10.48,15.3,49.65,49.65,0,0,1-13.73,12.92,34.63,34.63,0,0,1-8.79,3.79,55,55,0,0,1-9.29,1.71,165.27,165.27,0,0,1-18.58.44q-9.26-.13-18.49-.85c-6.17-.49-12.27-1.13-18.41-2s-12.41-2.27-18-5.4a31.1,31.1,0,0,1-4-2.71,35.07,35.07,0,0,1-3.49-3.29,51.15,51.15,0,0,1-5.63-7.56c-1.65-2.65-3.14-5.36-4.64-8l-4.49-8-35.83-64.41-18.06-32.12-9.13-16-4.58-8a2.88,2.88,0,0,1,.08-2.69,3.27,3.27,0,0,1,2.17-1.56,9.64,9.64,0,0,1,1.22-.12l1.14-.09,2.3-.16,36.76-2.84c12.27-.74,24.55-1.43,36.84-1.77q9.21-.29,18.43-.44c6.15-.09,12.29-.22,18.44-.07l18.44.29,18.43.39-.74.33a79.16,79.16,0,0,1,8.12-8,90.87,90.87,0,0,1,9.11-6.75,47.58,47.58,0,0,1,10.15-5.11,28.49,28.49,0,0,1,5.56-1.32,18.67,18.67,0,0,1,5.73,0,23.79,23.79,0,0,1,10.23,4.8,60.68,60.68,0,0,1,8.14,7.8A78.59,78.59,0,0,1,515.4,362.79Z" transform="translate(-93.7 -81.12)"/><path class="cls-2" d="M511.28,446.22a170.7,170.7,0,0,1-8.45,18.83c-3.14,6.13-6.63,12.07-10.29,17.89-1.83,2.92-3.73,5.8-5.65,8.65s-3.88,5.7-6.08,8.39a43,43,0,0,1-7.47,7.3,30.28,30.28,0,0,1-9.42,4.66c-6.77,2-13.82,2.11-20.68,2.29s-13.81,0-20.7-.39c-3.45-.16-6.88-.55-10.32-.85s-6.88-.57-10.31-1.05a69.52,69.52,0,0,1-10.29-2.09,30.7,30.7,0,0,1-9.64-4.61,31.5,31.5,0,0,1-7.19-7.9c-1.94-2.92-3.66-5.93-5.32-8.95l-10-18-20-36.08-20.2-36-20.43-35.85-.42-.72.84-.07q17.89-1.56,35.82-2.67c11.95-.75,23.91-1.37,35.88-1.78s23.95-.67,35.93-.77,24,0,35.93.23l2.71,0-1.61,2.17a66.34,66.34,0,0,0-4.91,7.69q-.56,1-1.08,2a12.07,12.07,0,0,0-.81,1.75,1,1,0,0,0,1.09,1.27.9.9,0,0,0,.74-.39l1.05-2.06q1.11-2.1,2.34-4.13a73.63,73.63,0,0,1,5.46-7.76l.48-.59.73,0,13.94.51,7,.25,3.48.13,1.73.06a.9.9,0,0,0,.59-.17,1.28,1.28,0,0,0,.13-1.4.85.85,0,0,0-.5-.42.35.35,0,0,0-.18-.05,1.19,1.19,0,0,0-.24,0l-.87,0-7-.26-13.9-.51-3.23-.12,2.24-2.31a69.07,69.07,0,0,1,16-12.44,37.44,37.44,0,0,1,9.49-4,17.53,17.53,0,0,1,5.33-.47,14,14,0,0,1,5.22,1.46,35.37,35.37,0,0,1,8.18,6.23,66.86,66.86,0,0,1,6.73,7.55,76.8,76.8,0,0,1,9.94,17.48,93.81,93.81,0,0,1,6.57,39.23A122.39,122.39,0,0,1,511.28,446.22Zm-.27-.1c4.59-12.43,7.62-25.53,7.94-38.78a92,92,0,0,0-7.37-38.59,74.67,74.67,0,0,0-10.11-16.81,68.52,68.52,0,0,0-6.67-7.16,33,33,0,0,0-7.67-5.71,11.46,11.46,0,0,0-4.32-1.14,15,15,0,0,0-4.55.47,35.08,35.08,0,0,0-8.73,3.88,70.61,70.61,0,0,0-15.28,12.05l-1-2.43,13.94.48,7,.25.88,0a5.87,5.87,0,0,1,.62.07,2.32,2.32,0,0,1,.65.17,3.79,3.79,0,0,1,2.09,1.78,4.32,4.32,0,0,1,.48,2.56,3.67,3.67,0,0,1-3.88,3.35l-1.75-.06-3.48-.12-6.95-.23-13.91-.48,1.21-.56a77.46,77.46,0,0,0-5.27,7.44q-1.2,1.94-2.27,3.95l-1.08,2.08a3.78,3.78,0,0,1-3.09,1.89,3.91,3.91,0,0,1-3.29-1.33,4,4,0,0,1-.84-3.42,5.27,5.27,0,0,1,.55-1.43l.54-1.05c.36-.71.74-1.4,1.12-2.09a71.57,71.57,0,0,1,5.16-7.95l1.09,2.22q-17.92-.46-35.86-.45t-35.87.38c-12,.27-23.91.64-35.86,1.2s-23.89,1.28-35.83,2.13l.43-.79L320,397.86l20.49,35.82,20.67,35.71,10.32,17.87c1.7,3,3.39,6,5.29,8.74a29,29,0,0,0,6.66,7.27,28.09,28.09,0,0,0,8.9,4.18,68,68,0,0,0,9.92,2c3.37.49,6.8.73,10.2,1.1s6.81.72,10.24.92c6.83.48,13.68.7,20.53.72s13.74.05,20.26-1.75a28.68,28.68,0,0,0,9.07-4.22,41.52,41.52,0,0,0,7.41-6.93c2.22-2.58,4.23-5.36,6.21-8.17s3.93-5.63,5.82-8.5c3.77-5.74,7.3-11.64,10.52-17.71A170,170,0,0,0,511,446.12Z" transform="translate(-93.7 -81.12)"/><path class="cls-3" d="M650.78,304.86A196.77,196.77,0,0,0,630.47,279c-7.18-7.56-15.64-14.54-25.69-17.79a34.93,34.93,0,0,0-14.32-1.55c-3.17.32-3.2,5.32,0,5,21.77-2.21,38.12,18.34,49.73,33.91,13.33,17.85,25.4,38.66,26.82,61.4,1.63,26.17-11.76,47.08-29.6,64.56a215.22,215.22,0,0,0-.42-60.14c-6-38.22-23.86-76.21-54.18-101-16.63-13.62-36.79-23.23-58.28-25.65a84.38,84.38,0,0,0-35.42,3.69c-11.39,3.68-22.08,9.17-32.93,14.17-45.22,20.83-94,31.93-141.43,46.41-11.93,3.65-23.8,7.5-35.52,11.78-5.22,1.91-10.76,3.63-15.55,6.5a22.35,22.35,0,0,0-9.62,11.81c-1.82,4.92-2.33,10.23-3.48,15.33a125.71,125.71,0,0,1-4.25,14.48,216.36,216.36,0,0,1-12.71,27.9c-9.56,18.16-20.45,35.76-27.55,55.1a109.81,109.81,0,0,0-6.63,28.76,100.07,100.07,0,0,0,3.85,35.5c11.14,39.43,38.19,72.41,66.78,100.73,28.82,28.54,60.63,54,88.09,83.89,6.59,7.18,12.92,14.61,18.82,22.36,1.92,2.53,6.27,0,4.32-2.52-24.19-31.78-54.59-57.86-83.89-84.73-28.8-26.42-57.43-54.32-76.07-89.11-10.69-19.94-18.68-42.41-17-65.34,1.52-20.17,10.28-38.88,19.66-56.48s19.95-35,26.85-54a127.28,127.28,0,0,0,4.35-14.46c1.18-5.08,1.7-10.36,3.38-15.32,1.88-5.57,5.74-9,11-11.36s11-4.26,16.45-6.21c46-16.24,93.92-26.5,139.77-43.25,11.43-4.18,22.72-8.76,33.76-13.88s21.89-10.67,33.58-14.09c22.91-6.7,47.11-2,67.8,9.2,34.34,18.66,56.71,53.6,66.84,90.62,7.61,27.83,7.94,56.58,3.75,84.82-11.18,10-23.54,18.9-34.84,27A1149.89,1149.89,0,0,1,471,535.43c-20.42,11-41.58,20.86-60.74,34-17.79,12.22-34.66,27.69-42.94,48.08a59.07,59.07,0,0,0-3.56,32c1.88,11.48,6.59,22.46,11.68,32.84a202,202,0,0,0,38,53.3q5.67,5.7,11.77,10.93c2.43,2.09,6-1.44,3.54-3.54a198.51,198.51,0,0,1-42.53-51.16,170.72,170.72,0,0,1-14.33-30.88c-3.82-11.37-5.33-23.2-2.17-34.92,5.76-21.4,22.86-38,40.37-50.46C429.14,562.06,450.49,552,471.12,541a1149.18,1149.18,0,0,0,126.27-78.37c10.64-7.6,22.15-15.77,32.89-24.86a328.57,328.57,0,0,1-10.13,40.8c-7.33,23.33-16.78,45.94-27,68.13-10.18,22-21.07,43.74-30,66.31-16.16,40.7-25.74,87-10.53,129.56a109.53,109.53,0,0,0,14.22,27.25c1.86,2.59,6.2.1,4.32-2.52-26.63-36.9-24.83-85.8-12.17-127.52,7.2-23.72,17.64-46.27,28.2-68.64s21-44.67,29.72-67.79c8.58-22.78,15.63-46.62,19.43-70.85,19.16-17.47,34.59-38.34,35.8-64.95C673.11,344.9,663.15,323.29,650.78,304.86Z" transform="translate(-93.7 -81.12)"/><path class="cls-2" d="M650.66,304.94a188.24,188.24,0,0,0-22.73-28.31,71.57,71.57,0,0,0-14.22-11.2,40.21,40.21,0,0,0-17-5.66,34.07,34.07,0,0,0-4.52-.06c-.38,0-.75,0-1.13.08l-.56,0-.52.11a2.38,2.38,0,0,0-1.46,1.4,2.61,2.61,0,0,0,0,2,1.72,1.72,0,0,0,1.63,1c.71,0,1.51-.09,2.26-.13s1.52,0,2.29,0a36.2,36.2,0,0,1,17.3,5.32,67.93,67.93,0,0,1,14.13,11.48A154.42,154.42,0,0,1,637.84,295c7.37,9.63,14.27,19.7,19.65,30.62s9.22,22.69,9.83,34.9a66.41,66.41,0,0,1-1.42,18.17,72.53,72.53,0,0,1-6.17,17.16c-5.51,10.91-13.36,20.44-22,29l-.91.89.16-1.27c2.53-20.45,2.61-41.29-.82-61.62A179.93,179.93,0,0,0,616,304.76a150.29,150.29,0,0,0-17.67-25.22,130.2,130.2,0,0,0-22.75-20.68,117,117,0,0,0-27.07-14.44,99,99,0,0,0-29.93-6.22,84.21,84.21,0,0,0-30.15,4.47c-9.72,3.25-19,7.83-28.33,12.23s-18.91,8.48-28.58,12.17-19.46,7.08-29.31,10.27c-39.38,12.74-79.68,22.24-118.54,36.12l-7.29,2.63c-2.43.87-4.84,1.74-7.16,2.75a35.49,35.49,0,0,0-6.54,3.57,20.71,20.71,0,0,0-5,5.25c-2.74,4.06-3.8,9-4.71,14.1-.46,2.52-.94,5.13-1.57,7.66s-1.32,5.06-2.1,7.54a185.17,185.17,0,0,1-12.15,28.71c-4.72,9.23-9.84,18.23-14.75,27.3A271.64,271.64,0,0,0,209,440.73a115.66,115.66,0,0,0-8,29.53,92.93,92.93,0,0,0,1.46,30.43c.51,2.51,1.12,5,1.8,7.46s1.51,4.9,2.25,7.35,1.75,4.82,2.61,7.23,2,4.74,3,7.11c8.32,18.79,20,35.94,33.23,51.73s27.93,30.31,43,44.38S319,653.7,333.91,668c7.48,7.14,14.82,14.44,21.88,22s13.88,15.38,20.22,23.57l1.19,1.55a3.08,3.08,0,0,0,1.1,1.08,2.11,2.11,0,0,0,2.5-.65,1.09,1.09,0,0,0,.12-1.11,10.57,10.57,0,0,0-1-1.41l-2.38-3c-3.18-4.05-6.48-8-9.85-11.91-6.75-7.79-13.85-15.29-21.15-22.58-14.61-14.59-30-28.37-45.25-42.33s-30.4-28.06-44.31-43.4-26.56-31.89-36.29-50.21A163.4,163.4,0,0,1,208.55,511a116.64,116.64,0,0,1-3.6-15.12,94.77,94.77,0,0,1-1.23-15.51,96.07,96.07,0,0,1,5.43-30.51,201.29,201.29,0,0,1,12.53-28.39c9.55-18.33,20.49-36,27.86-55.27a126.93,126.93,0,0,0,4.71-14.7c1.34-5,1.85-10.11,3.21-15.17a21.22,21.22,0,0,1,3.19-7.2,19.46,19.46,0,0,1,5.88-5.26,53.39,53.39,0,0,1,7.09-3.29c2.41-1,4.85-1.83,7.29-2.69,38.93-14.06,79.22-23.7,118.57-36.22q14.76-4.69,29.28-10.07C438.43,268,448,264,457.35,259.74s18.6-9,28.35-12.65a87.16,87.16,0,0,1,15-4.25,82,82,0,0,1,15.57-1.29,92,92,0,0,1,30.56,5.79A111,111,0,0,1,574.27,262c16.88,12.25,30.34,28.78,40.15,47.06a174.58,174.58,0,0,1,19,59c2.83,20.6,2.19,41.56-.83,62.07l-.05.38-.29.26c-7.38,6.62-15.2,12.72-23.15,18.59s-16,11.6-24.08,17.27q-24.27,17-49.41,32.7t-51.05,30.1q-12.94,7.2-26.1,14c-8.76,4.55-17.52,9.07-26.09,13.89A266.19,266.19,0,0,0,407.44,573a144.5,144.5,0,0,0-22.08,19.21,86.06,86.06,0,0,0-16.08,24.15,57.25,57.25,0,0,0-4.75,28.22c.83,9.62,4,19,7.85,27.93A206.43,206.43,0,0,0,386,698.6a200.49,200.49,0,0,0,37.7,44.82l1.38,1.21.7.6.35.3.18.13a1,1,0,0,0,.74.12,1.44,1.44,0,0,0,.76-.45.92.92,0,0,0,.27-.63c0-.16-.07-.28-.38-.57l-2.8-2.45q-5.56-5-10.75-10.33a197.79,197.79,0,0,1-19.07-22.89A204.42,204.42,0,0,1,379.58,683a140.51,140.51,0,0,1-11-27.77,66.12,66.12,0,0,1-2.08-15,51.51,51.51,0,0,1,1.91-15.06c2.69-9.77,7.87-18.66,14.14-26.45a126,126,0,0,1,21.66-20.59,229.64,229.64,0,0,1,24.87-16.35c8.58-5,17.36-9.54,26.11-14.09s17.47-9.13,26.11-13.87q25.94-14.21,51.1-29.74t49.5-32.32c8.1-5.6,16.14-11.32,24.14-17.08s15.85-11.67,23.34-18l3-2.55-.69,3.89c-5.24,29.49-15.11,57.89-26.73,85.32s-25.49,53.88-37.07,81.23a317.72,317.72,0,0,0-14.71,41.93l-1.38,5.38c-.46,1.79-.81,3.61-1.22,5.42-.86,3.6-1.43,7.26-2.1,10.9a183.47,183.47,0,0,0-2.27,22,142.27,142.27,0,0,0,4.73,43.87l1.66,5.28.84,2.64c.31.87.62,1.74,1,2.6q2,5.18,4.43,10.14a106,106,0,0,0,5.43,9.63c1,1.55,2,3.09,3.09,4.59l.19.28.16.17a1.59,1.59,0,0,0,.34.3,1.64,1.64,0,0,0,.84.24,2,2,0,0,0,1.6-.81c.29-.49.25-.87-.24-1.56l-1.55-2.35c-1-1.58-2.07-3.13-3.08-4.71l-2.7-4.94c-.45-.83-.92-1.64-1.34-2.48l-1.15-2.56c-.76-1.71-1.56-3.41-2.29-5.14l-1.91-5.29c-.31-.88-.67-1.75-.93-2.65l-.77-2.7c-.49-1.81-1.06-3.6-1.49-5.42a147.53,147.53,0,0,1-3.26-44.58,188.3,188.3,0,0,1,2.9-22.2c.75-3.65,1.45-7.32,2.4-10.93s1.9-7.22,2.93-10.8a359.22,359.22,0,0,1,15.76-41.82c6-13.64,12.5-27,18.83-40.49s12.53-27,18.2-40.74c11.34-27.47,20.58-56,25.25-85.36l0-.09.06-.06c8.82-8.05,17-16.91,23.37-27A77.9,77.9,0,0,0,671.53,372c1.34-11.89-.61-24-4.52-35.22A140.51,140.51,0,0,0,650.66,304.94Zm.24-.15a140.86,140.86,0,0,1,16.43,31.84c3.95,11.28,5.93,23.41,4.6,35.37a73.85,73.85,0,0,1-4.09,17.48,85.19,85.19,0,0,1-8,16.09c-6.4,10.16-14.58,19.06-23.41,27.14l.08-.15c-4.61,29.47-13.87,58-25.11,85.54-5.63,13.79-11.78,27.35-18.06,40.85s-12.73,26.9-18.65,40.55a358.36,358.36,0,0,0-15.54,41.74c-1,3.57-2,7.13-2.87,10.75s-1.61,7.24-2.34,10.88a186.08,186.08,0,0,0-2.78,22,145.55,145.55,0,0,0,3.41,44.1c.43,1.79,1,3.55,1.5,5.33l.76,2.67c.26.88.62,1.73.93,2.61l1.91,5.19c.72,1.7,1.52,3.37,2.27,5l1.15,2.52c.42.82.88,1.62,1.32,2.43l2.68,4.84,3,4.62,1.53,2.3c.11.16.29.45.44.72a2.9,2.9,0,0,1,.3.93,2.81,2.81,0,0,1-.43,1.95,3.73,3.73,0,0,1-3.15,1.66,3.35,3.35,0,0,1-1.8-.51,3.24,3.24,0,0,1-.72-.6l-.3-.35-.21-.29c-1.1-1.52-2.14-3.08-3.16-4.65a109.88,109.88,0,0,1-5.57-9.78,111.07,111.07,0,0,1-4.55-10.3c-.34-.87-.67-1.75-1-2.63l-.86-2.68L549,734.69a144.13,144.13,0,0,1-5-44.51,181.76,181.76,0,0,1,2.22-22.33c.67-3.68,1.24-7.38,2.1-11,.41-1.83.76-3.67,1.22-5.48l1.38-5.43a319,319,0,0,1,14.7-42.29c11.57-27.52,25.42-53.9,36.86-81.32,5.75-13.69,11-27.57,15.56-41.7a328.23,328.23,0,0,0,10.85-43.07l2.33,1.34c-7.58,6.41-15.51,12.36-23.51,18.15s-16.06,11.51-24.18,17.13Q559.12,491,533.9,506.59t-51.22,29.83c-8.65,4.76-17.4,9.38-26.16,13.91s-17.49,9.1-26,14A228.46,228.46,0,0,0,406,580.52a122.46,122.46,0,0,0-21.14,20.11c-6.07,7.54-11,16.08-13.58,25.38s-2.17,19.13.21,28.48a109.52,109.52,0,0,0,4.66,13.82c1.83,4.53,3.89,9,6.12,13.33a200.29,200.29,0,0,0,15.21,25.1,193.86,193.86,0,0,0,18.76,22.58q5.1,5.28,10.58,10.19l2.76,2.42a3.79,3.79,0,0,1,1.38,2.57,3.73,3.73,0,0,1-1,2.74,4.28,4.28,0,0,1-2.36,1.38,3.87,3.87,0,0,1-2.82-.49l-.57-.4-.35-.31-.7-.61-1.4-1.23a202.69,202.69,0,0,1-38.19-45.5,210.7,210.7,0,0,1-13.75-26.41c-3.93-9.12-7.18-18.73-8-28.82a60.13,60.13,0,0,1,5-29.54,89,89,0,0,1,16.6-24.88,147.82,147.82,0,0,1,22.51-19.55,267.57,267.57,0,0,1,25.19-15.8c8.64-4.83,17.43-9.36,26.18-13.9s17.44-9.17,26.06-14q25.89-14.28,51-29.91t49.39-32.51q12.13-8.44,24.08-17.18c7.93-5.83,15.71-11.86,23-18.41l-.34.64c3-20.34,3.73-41.1,1-61.49-.68-5.09-1.56-10.16-2.7-15.17-.52-2.51-1.2-5-1.83-7.48l-2.17-7.4a170.25,170.25,0,0,0-12-28.37c-9.66-18.1-22.91-34.44-39.52-46.56a109.34,109.34,0,0,0-27-14.54,90.61,90.61,0,0,0-30-5.78A79.75,79.75,0,0,0,501,244.3a85,85,0,0,0-14.78,4.14c-9.66,3.54-18.87,8.24-28.28,12.53s-19,8.2-28.71,11.8-19.51,6.9-29.37,10c-19.72,6.22-39.65,11.7-59.51,17.4s-39.64,11.65-59.09,18.62c-2.44.85-4.86,1.72-7.25,2.67a51.14,51.14,0,0,0-7,3.21,18.61,18.61,0,0,0-5.6,5,20.07,20.07,0,0,0-3,6.89c-1.34,4.93-1.86,10.12-3.22,15.14a129.46,129.46,0,0,1-4.76,14.8C243,385.9,232,403.56,222.46,421.84A196.41,196.41,0,0,0,210,450.1a95.26,95.26,0,0,0-5.35,30.25,94.12,94.12,0,0,0,1.24,15.35,114,114,0,0,0,3.59,15,162.74,162.74,0,0,0,12.1,28.39c9.7,18.21,22.34,34.71,36.21,50s29,29.36,44.29,43.26S332.8,660,347.48,674.53c7.34,7.29,14.49,14.78,21.29,22.58q5.12,5.86,9.94,11.94l2.4,3.06a9.47,9.47,0,0,1,1.21,1.74,2.63,2.63,0,0,1-.27,2.57,3.63,3.63,0,0,1-4.41,1.18,4.6,4.6,0,0,1-1.67-1.55l-1.18-1.52c-6.34-8.13-13.11-15.91-20.2-23.4s-14.41-14.77-21.89-21.87c-15-14.22-30.52-27.83-45.69-41.88s-30-28.56-43.35-44.44-25.22-33.13-33.72-52.16c-1-2.4-2-4.78-3-7.2s-1.82-4.87-2.66-7.34-1.56-5-2.29-7.46-1.32-5-1.84-7.61a95.33,95.33,0,0,1-1.53-31.2,118.51,118.51,0,0,1,8.11-30.15,273.64,273.64,0,0,1,13.52-28c4.92-9.11,10-18.09,14.69-27.26a181.59,181.59,0,0,0,12-28.33c.77-2.44,1.45-4.9,2.06-7.38s1.06-5,1.52-7.53a71.88,71.88,0,0,1,1.73-7.69,27.47,27.47,0,0,1,3.36-7.36,22.77,22.77,0,0,1,5.65-5.89,38,38,0,0,1,7-3.84c2.42-1,4.88-1.93,7.31-2.8l7.3-2.61c39.06-13.87,79.4-23.29,118.69-35.92,9.82-3.17,19.57-6.53,29.21-10.19s19.11-7.72,28.46-12.05,18.69-8.93,28.6-12.2a86.24,86.24,0,0,1,30.86-4.45,100.89,100.89,0,0,1,30.48,6.46,118.7,118.7,0,0,1,27.41,14.77,131.82,131.82,0,0,1,22.93,21,151.82,151.82,0,0,1,17.74,25.53,181.57,181.57,0,0,1,20,58.57c3.37,20.47,3.2,41.4.58,61.91l-.75-.37c8.64-8.44,16.46-17.87,22-28.65a71.9,71.9,0,0,0,6.18-17,66,66,0,0,0,1.48-18c-.59-12.1-4.42-23.85-9.73-34.69s-12.2-20.94-19.55-30.57a153.62,153.62,0,0,0-11.69-13.89,67.15,67.15,0,0,0-14-11.43,35.84,35.84,0,0,0-17.1-5.29c-.75,0-1.5,0-2.26,0s-1.47.12-2.28.13a2.32,2.32,0,0,1-1.19-.33,2.12,2.12,0,0,1-.79-.94,3,3,0,0,1,0-2.37,2.76,2.76,0,0,1,1.71-1.63,5.55,5.55,0,0,1,1.17-.18c.38,0,.76-.05,1.14-.08a34.86,34.86,0,0,1,4.57.07,40.79,40.79,0,0,1,17.2,5.73,73.39,73.39,0,0,1,14.27,11.28A188.85,188.85,0,0,1,650.9,304.79Z" transform="translate(-93.7 -81.12)"/></g><g id="Layer_3" data-name="Layer 3"><path class="cls-4" d="M565.15,405.93l20.62-274.28.31-4.17-1.81,3.78L465,379.09l-227.16-155-3.52-2.4,2.4,3.52,155,227.16L143.85,571.68l-3.79,1.82,4.18-.31,274.27-20.63L397.88,826.83l-.31,4.18,1.82-3.79L518.66,579.4l227.15,155,3.52,2.41-2.4-3.53L592,506.08,839.81,386.8l3.78-1.82-4.17.32ZM507,535.8l-56.55-15.16-15.16-56.55,41.4-41.4,56.56,15.16,15.15,56.54Z" transform="translate(-93.7 -81.12)"/><path class="cls-5" d="M491.83,83.24c-218.7,0-396,177.3-396,396s177.3,396,396,396,396-177.29,396-396S710.54,83.24,491.83,83.24Zm311.43,576.7L543.67,569l-51,270.19-.79,4.19-.79-4.19L440,569l-259.58,90.9-4,1.39,3.17-2.73L388.15,479.25,179.62,299.89l-3.17-2.73,4,1.39L440,389.45,491,119.25l.79-4.18.79,4.18,51,270.2,259.59-90.9,4-1.39-3.17,2.73L595.52,479.25,804.05,658.6l3.17,2.73Z" transform="translate(-93.7 -81.12)"/></g><g id="Layer_2" data-name="Layer 2"><path class="cls-6" d="M799.1,505.63c-31.34,5.13-67.17,10.71-113.38,3.65-27-4.12-92.45-14.11-95.1-36.57-3.26-27.72,88.87-77,179.22-69.49a257.07,257.07,0,0,1,77.77,19.64,358.58,358.58,0,0,0-88.5-185c.27,18.87-24.74,53.68-50.81,90-18.53,25.79-39.92,55.07-77.59,82.76-22,16.17-75.35,55.39-93.1,41.38C515.7,434.71,546,334.68,615.19,276.14c43.87-37.1,103.87-57.95,130.29-52.54A358.86,358.86,0,0,0,492,119.24c-198.82,0-360,161.18-360,360C132,617.17,209.58,737,323.48,797.43c8.26-19.41,27.06-45.59,46.46-72.59,18.52-25.79,39.92-55.07,77.58-82.76,22-16.17,75.36-55.39,93.11-41.38C562.53,618,532.27,718,463,776.56a256.12,256.12,0,0,1-81,45.57,362.32,362.32,0,0,0,185.65,9.13c-2.79-13.94-5.31-29.32-7.87-44.93C554.71,755,549.13,719.16,556.19,673c4.12-27,14.11-92.45,36.57-95.09,27.72-3.26,77,88.86,69.49,179.21a247.29,247.29,0,0,1-7.78,43.51,361.21,361.21,0,0,0,110-86c-8.7-6-17.72-12.5-26.83-19.05-25.79-18.52-55.07-39.92-82.76-77.59-16.17-22-55.39-75.35-41.38-93.1,17.29-21.91,117.32,8.36,175.86,77.59a246.86,246.86,0,0,1,25.41,36.51,358,358,0,0,0,36.87-142.77C835.77,499.61,817.59,502.59,799.1,505.63ZM416,295.63c5.7-68.15,43.84-136.16,67.06-132.89,18.8,2.65,26.87,51.9,35.35,103.63,5.14,31.33,10.72,67.17,3.66,113.38-4.12,27-14.12,92.45-36.57,95.1C457.76,478.11,408.43,386,416,295.63ZM242.35,308.9c15.17-11.42,55.7,17.69,98.28,48.27,25.79,18.53,55.07,39.92,82.76,77.59,16.17,22,55.39,75.35,41.38,93.1-17.3,21.91-117.32-8.36-175.87-77.58C244.74,398.06,223.62,323,242.35,308.9Zm66,340.59c-68.16-5.7-136.16-43.84-132.89-67.06,2.65-18.8,51.89-26.87,103.63-35.35,31.33-5.14,67.17-10.72,113.38-3.66,27,4.12,92.45,14.12,95.09,36.57C490.87,607.71,398.75,657,308.4,649.49Zm230.72-76a47.11,47.11,0,1,1,47.11-47.11A47.11,47.11,0,0,1,539.12,573.46Z" transform="translate(-93.7 -81.12)"/></g></svg>