<svg id="Layer_1" data-name="Layer 1" xmlns="http://www.w3.org/2000/svg" viewBox="0 0 100 100"><defs><style>.cls-1{fill:#fff;}.cls-1,.cls-2{stroke:#231f20;stroke-miterlimit:10;}.cls-2{fill:none;}</style></defs><title>70&amp;apos;s_ish_Snowflake</title><circle class="cls-1" cx="936" cy="576" r="216" transform="translate(-115.91 1376.81) rotate(-89.75)"/><line class="cls-2" x1="464.16" y1="875.33" x2="464.16" y2="443.33"/><line class="cls-2" x1="639.87" y1="837.98" x2="464.16" y2="443.33"/><line class="cls-2" x1="785.2" y1="732.39" x2="464.16" y2="443.33"/><line class="cls-2" x1="875.01" y1="576.82" x2="464.16" y2="443.33"/><line class="cls-2" x1="893.79" y1="398.17" x2="464.16" y2="443.33"/><line class="cls-2" x1="838.28" y1="227.32" x2="464.16" y2="443.33"/><path class="cls-2" d="M1190.78,227.13c-9.13,15.61-18.79,30.84-28.61,46s-19.89,30-30.12,44.86c-20.4,29.67-41.66,58.73-63,87.72s-43,57.76-64.95,86.31c-11,14.25-22,28.5-33.25,42.59-5.59,7.06-11.18,14.13-16.87,21.12s-11.35,14-17.12,20.93l-1.72-1.25q7.22-11.45,14.62-22.75c4.89-7.57,9.88-15.07,14.87-22.57,9.93-15,20.08-29.91,30.23-44.78q30.55-44.55,62-88.44c21-29.26,42-58.45,64-87q16.4-21.45,33.36-42.51c11.34-14,22.84-27.9,34.86-41.41Z" transform="translate(-471.84 -132.67)"/><line class="cls-2" x1="553.97" y1="20.76" x2="464.16" y2="443.33"/><path class="cls-2" d="M901.6,223.62c6.51-46.65-25.5-18-55.42-70.18L936,576C912.62,361.25,885.56,338.69,901.6,223.62Z" transform="translate(-471.84 -132.67)"/><path class="cls-2" d="M823,240.69c-25.27-39.74,15.73-26.95,21.31-86.84q46.79,210.87,93.58,421.74C870.06,370.5,885.33,338.74,823,240.69Z" transform="translate(-471.84 -132.67)"/><line class="cls-2" x1="210.23" y1="93.83" x2="464.16" y2="443.33"/><line class="cls-2" x1="90.03" y1="227.32" x2="464.16" y2="443.33"/><line class="cls-2" x1="34.52" y1="398.17" x2="464.16" y2="443.33"/><line class="cls-2" x1="53.3" y1="576.82" x2="464.16" y2="443.33"/><line class="cls-2" x1="143.12" y1="732.39" x2="464.16" y2="443.33"/><line class="cls-2" x1="288.45" y1="837.98" x2="464.16" y2="443.33"/><path class="cls-2" d="M1033.5,183.14c-3,14.82-12.93,19.41-19.92,15.77-5.22-2.72-8.78-10-6.55-21.1,5.21-25.89,22.68-44.22,22.68-44.22S1038.71,157.25,1033.5,183.14Z" transform="translate(-471.84 -132.67)"/><path class="cls-2" d="M1018.71,175.1,902,361.36s39.69-41.39,56-37.18c11,2.86,20.93,40.44,20.93,40.44" transform="translate(-471.84 -132.67)"/><path class="cls-2" d="M1025.7,176l30.65,217.67s-19.37-54-35.94-56.76c-11.22-1.89-35.59,28.39-35.59,28.39" transform="translate(-471.84 -132.67)"/><path class="cls-2" d="M1103,346.27l120-49s-68.06,11.13-58.61-1.23c13.8-18.05,87.23-34.86,87.23-34.86s-43.7,3.27-66,7c-27.44,4.64,71.7-41.32,71.7-41.32s-41,10.35-51.54-4.18c-4-5.5,20.76-16.72,20.76-16.72s-5.27-18.83-8.39-21-22.63-1.08-22.63-1.08-4.47,29.3-11,27.29c-17.18-5.29-18.79-51-18.79-51s-11.07,110.12-15.76,82.68c-5.85-34.27-21.62-71.71-21.62-71.71s19.07,91.5,4.16,99.65c-13.65,7.47-24.4-46-24.4-46Z" transform="translate(-471.84 -132.67)"/><path class="cls-2" d="M682.94,227.13c12,13.51,23.52,27.4,34.86,41.41s22.43,28.21,33.36,42.51c21.92,28.58,43,57.77,64,87s41.65,58.74,62,88.44c10.15,14.87,20.3,29.74,30.23,44.78,5,7.5,10,15,14.87,22.57s9.81,15.12,14.62,22.75l-1.72,1.25q-8.65-10.39-17.12-20.93c-5.69-7-11.28-14.06-16.87-21.12-11.23-14.09-22.24-28.34-33.25-42.59Q835,450.41,803,406.92c-21.34-29-42.6-58.05-63-87.72Q724.61,297,709.83,274.33C700,259.22,690.35,244,681.22,228.38Z" transform="translate(-471.84 -132.67)"/><line class="cls-2" x1="90.03" y1="228.57" x2="464.16" y2="444.58"/><path class="cls-2" d="M590.23,501.07c-42.35-20.6-25,18.69-83.87,31L936,577.25C724.54,533.12,694.72,551.89,590.23,501.07Z" transform="translate(-471.84 -132.67)"/><path class="cls-2" d="M582.18,581.12c-45.61,11.75-20.77-23.3-76-47.11l430,41.32C720.18,576.46,694.7,552.13,582.18,581.12Z" transform="translate(-471.84 -132.67)"/><path class="cls-2" d="M592.5,363.12c13.17,7.42,14.46,18.3,8.84,23.82-4.2,4.12-12.25,5.25-22.09-.29-23-13-35-35.23-35-35.23S569.48,350.16,592.5,363.12Z" transform="translate(-471.84 -132.67)"/><path class="cls-2" d="M580.28,374.7,721.36,543.27s-27.1-50.54-18.07-64.7c6.12-9.6,44.92-7.41,44.92-7.41" transform="translate(-471.84 -132.67)"/><path class="cls-2" d="M583.27,368.32l216.48,38.12s-57.32,1.74-65.08,16.63c-5.27,10.1,16,42.63,16,42.63" transform="translate(-471.84 -132.67)"/><path class="cls-2" d="M769.12,347.44l-9.57-129.29s-10.44,68.17-19.27,55.36c-12.91-18.71-6.21-93.73-6.21-93.73s-10.39,42.56-13.7,65c-4.07,27.53-17.15-81-17.15-81s-2.81,42.14-19.89,47.73c-6.48,2.12-9.49-24.91-9.49-24.91s-19.54-.81-22.61,1.47-8,21.19-8,21.19,26.48,13.3,22.56,18.88c-10.35,14.7-54.35,2.1-54.35,2.1s101.31,44.55,73.77,40.53c-34.41-5-74.89-1.6-74.89-1.6s92.91,10.14,96.06,26.84c2.89,15.29-51.32,9-51.32,9Z" transform="translate(-471.84 -132.67)"/><path class="cls-2" d="M526,710.12c16.57-7.26,33.34-13.91,50.16-20.36s33.76-12.62,50.74-18.6c34-12,68.23-23,102.54-33.93s68.73-21.46,103.27-31.65c17.28-5.06,34.56-10.12,51.93-14.91,8.68-2.43,17.35-4.86,26.06-7.18s17.42-4.66,26.16-6.87l.66,2q-12.57,5-25.2,9.81c-8.41,3.25-16.86,6.38-25.3,9.51-16.87,6.34-33.83,12.41-50.78,18.46q-50.91,18.09-102.16,35.1c-34.16,11.34-68.37,22.58-102.89,32.82q-25.89,7.71-52,14.78c-17.41,4.67-34.88,9.14-52.55,13Z" transform="translate(-471.84 -132.67)"/><line class="cls-2" x1="144.31" y1="734.03" x2="465.35" y2="444.96"/><path class="cls-2" d="M757.89,882.94c-32.68,33.91,10.05,29.55,3.59,89.35L937.19,577.63C829.88,765.11,838.51,799.27,757.89,882.94Z" transform="translate(-471.84 -132.67)"/><path class="cls-2" d="M831.53,915.33c-2.92,47-28.57,12.56-68.29,57.73Q849.34,775,935.42,576.86C869.74,782.65,838.73,799.36,831.53,915.33Z" transform="translate(-471.84 -132.67)"/><path class="cls-2" d="M627.39,838.16c11.13-10.24,21.88-8.11,25.39-1.06,2.62,5.27,1.21,13.28-7.11,20.93-19.43,17.88-44.33,22.44-44.33,22.44S608,856,627.39,838.16Z" transform="translate(-471.84 -132.67)"/><path class="cls-2" d="M634.63,853.35l203.91-82.08s-56.44,10.15-67.12-2.81c-7.23-8.78,6.84-45,6.84-45" transform="translate(-471.84 -132.67)"/><path class="cls-2" d="M629.49,848.54,732.63,654.43s-16,55.05-4.29,67c8,8.13,45.49-2.05,45.49-2.05" transform="translate(-471.84 -132.67)"/><path class="cls-2" d="M667.06,665.33,541.14,634.48s61.61,31,46.7,35.44c-21.78,6.49-91.07-23.06-91.07-23.06s37.27,23,57.55,33.1c24.93,12.38-82.29-8.71-82.29-8.71s39.21,15.69,39.24,33.67c0,6.82-26.62,1.33-26.62,1.33s-6.81,18.33-5.59,22,17.67,14.17,17.67,14.17,20.84-21.07,24.93-15.62c10.78,14.38-14.8,52.33-14.8,52.33s73.67-82.57,61.34-57.63c-15.4,31.17-24.66,70.73-24.66,70.73S581.9,707,598.76,709.12c15.43,2-7.32,51.59-7.32,51.59Z" transform="translate(-471.84 -132.67)"/><path class="cls-2" d="M936.86,1008.62c-1.78-18-2.92-36-3.86-54s-1.57-36-2-54c-.93-36-.81-72-.59-108s.84-72,1.82-108c.52-18,1-36,1.86-54,.38-9,.74-18,1.23-27s1-18,1.55-27H939q.88,13.5,1.54,27c.49,9,.86,18,1.23,27,.81,18,1.35,36,1.87,54q1.47,54,1.81,108c.23,36,.35,72-.59,108q-.65,27-2,54c-.94,18-2.08,36-3.86,54Z" transform="translate(-471.84 -132.67)"/><line class="cls-2" x1="641.79" y1="838.6" x2="466.08" y2="443.95"/><path class="cls-2" d="M1172.88,841.49c22.15,41.56,31.2-.43,86.08,24.2l-321-289.07C1083.06,736.62,1118.21,739,1172.88,841.49Z" transform="translate(-471.84 -132.67)"/><path class="cls-2" d="M1226.44,781.46c43.81,17.3,3.12,31.06,33.81,82.79L936.64,578.06C1112.06,704.12,1118.37,738.78,1226.44,781.46Z" transform="translate(-471.84 -132.67)"/><path class="cls-2" d="M1090,951.76c-6.29-13.74-.94-23.3,6.84-24.47,5.82-.86,13,3,17.71,13.23,11,24,7.64,49.1,7.64,49.1S1101,975.77,1090,951.76Z" transform="translate(-471.84 -132.67)"/><path class="cls-2" d="M1106.65,949.58l-15.05-219.3s-7.79,56.81-23.41,63c-10.6,4.17-40.7-20.41-40.7-20.41" transform="translate(-471.84 -132.67)"/><path class="cls-2" d="M1100.49,953,947.75,794.9s47.4,32.28,62.43,24.79c10.19-5.07,12.11-43.89,12.11-43.89" transform="translate(-471.84 -132.67)"/><path class="cls-2" d="M937.85,860.63,869.6,970.86s48.52-49,48.14-33.47c-.56,22.72-50.08,79.48-50.08,79.48s33.43-28.33,49.27-44.5c19.47-19.88-33.72,75.57-33.72,75.57s27-32.43,44.16-26.91c6.48,2.09-7,25.73-7,25.73s15.33,12.13,19.15,12.1,19-12.43,19-12.43-13.61-26.33-7.16-28.53c17-5.82,45.2,30.24,45.2,30.24S940.77,952.56,960.69,972c24.88,24.29,59.65,45.31,59.65,45.31s-69.21-62.81-61.94-78.18c6.65-14.06,46.8,22.9,46.8,22.9Z" transform="translate(-471.84 -132.67)"/><path class="cls-2" d="M1347.72,710.12c-17.67-3.87-35.14-8.35-52.55-13s-34.73-9.64-52-14.78c-34.53-10.24-68.73-21.48-102.9-32.82s-68.21-23-102.15-35.1c-17-6.06-33.91-12.12-50.78-18.46-8.45-3.13-16.89-6.26-25.3-9.51s-16.83-6.47-25.2-9.82l.66-2q13.11,3.31,26.15,6.87c8.71,2.32,17.39,4.75,26.06,7.18,17.37,4.79,34.66,9.84,51.94,14.91q51.81,15.29,103.27,31.65c34.31,10.91,68.58,21.92,102.53,33.93q25.48,9,50.74,18.59c16.83,6.46,33.6,13.11,50.17,20.37Z" transform="translate(-471.84 -132.67)"/><line class="cls-2" x1="894.98" y1="397.78" x2="465.35" y2="442.94"/><path class="cls-2" d="M1261.7,434c46.37-8.23,9.23-29.82,49.61-74.4l-374.12,216C1134.2,487,1147.29,454.31,1261.7,434Z" transform="translate(-471.84 -132.67)"/><path class="cls-2" d="M1221.16,364.51c30-36.31,30.5,6.64,89.18-6.56L938.16,577.28C1112.25,449.4,1147.17,454.1,1221.16,364.51Z" transform="translate(-471.84 -132.67)"/><path class="cls-2" d="M1341,546.94c-15,1.74-22.46-6.3-21.16-14.07,1-5.8,6.83-11.45,18-12.75,26.24-3,49.06,7.9,49.06,7.9S1367.19,543.9,1341,546.94Z" transform="translate(-471.84 -132.67)"/><path class="cls-2" d="M1344,530.39l-213.22-53.45s51.63,25,52.65,41.72c.69,11.37-32,32.4-32,32.4" transform="translate(-471.84 -132.67)"/><path class="cls-2" d="M1345.36,537.31l-197.54,96.41s45.34-35.11,42.87-51.72c-1.67-11.26-38-25.07-38-25.07" transform="translate(-471.84 -132.67)"/><path class="cls-2" d="M1207.27,663.44l83.74,99s-31.62-61.3-17-56.13c21.44,7.56,60.12,72.19,60.12,72.19s-16.61-40.54-27.1-60.61c-12.89-24.66,61.46,55.42,61.46,55.42s-22.5-35.74-12-50.31c4-5.52,22.32,14.58,22.32,14.58s16.28-10.83,17.43-14.48-6-21.86-6-21.86-29.25,4.81-29.35-2c-.27-18,42.74-33.64,42.74-33.64s-108.15,23.5-83.51,10.57c30.79-16.17,61.53-42.73,61.53-42.73s-81.13,46.41-93.5,34.75c-11.31-10.67,36.24-37.43,36.24-37.43Z" transform="translate(-471.84 -132.67)"/><path class="cls-2" d="M1865.71,474.08" transform="translate(-471.84 -132.67)"/><line class="cls-2" x1="1385.15" y1="416.62" x2="1385.12" y2="416.64"/></svg>